<?xml version="1.0" encoding="UTF-8" standalone="no"?>
<!-- Created with Inkscape (http://www.inkscape.org/) -->

<svg
   xmlns:dc="http://purl.org/dc/elements/1.1/"
   xmlns:cc="http://creativecommons.org/ns#"
   xmlns:rdf="http://www.w3.org/1999/02/22-rdf-syntax-ns#"
   xmlns:svg="http://www.w3.org/2000/svg"
   xmlns="http://www.w3.org/2000/svg"
   xmlns:sodipodi="http://sodipodi.sourceforge.net/DTD/sodipodi-0.dtd"
   xmlns:inkscape="http://www.inkscape.org/namespaces/inkscape"
   version="1.1"
   id="svg2"
   width="454.66666"
   height="170.66667"
   viewBox="0 0 454.66666 170.66667"
   sodipodi:docname="logo.svg"
   inkscape:version="0.92.5 (2060ec1f9f, 2020-04-08)">
  <metadata
     id="metadata8">
    <rdf:RDF>
      <cc:Work
         rdf:about="">
        <dc:format>image/svg+xml</dc:format>
        <dc:type
           rdf:resource="http://purl.org/dc/dcmitype/StillImage" />
        <dc:title></dc:title>
      </cc:Work>
    </rdf:RDF>
  </metadata>
  <defs
     id="defs6" />
  <sodipodi:namedview
     pagecolor="#ffffff"
     bordercolor="#666666"
     borderopacity="1"
     objecttolerance="10"
     gridtolerance="10"
     guidetolerance="10"
     inkscape:pageopacity="0"
     inkscape:pageshadow="2"
     inkscape:window-width="1366"
     inkscape:window-height="705"
     id="namedview4"
     showgrid="false"
     inkscape:zoom="1.7853928"
     inkscape:cx="220.90923"
     inkscape:cy="102.1268"
     inkscape:window-x="-8"
     inkscape:window-y="-8"
     inkscape:window-maximized="1"
     inkscape:current-layer="svg2" />
  <path
     style="fill:#24c19f;stroke-width:1.37541354"
     d="M 48.34352,143.01631 C 28.18467,136.41577 15.642863,121.55026 10.73393,98.438528 6.9926003,80.823991 10.754396,61.595336 20.809759,46.935338 26.973987,37.948333 33.399705,32.776813 45.555336,27.019707 c 8.844982,-4.18913 10.337759,-4.460375 24.547243,-4.460375 14.620407,0 15.47669,0.169385 25.445149,5.033401 5.673582,2.76837 12.172412,6.601421 14.441842,8.517889 l 4.12623,3.48449 -7.86264,7.926157 -7.862669,7.926155 -3.14065,-2.948395 c -5.871779,-5.512344 -14.82578,-8.560375 -25.147262,-8.560375 -15.777435,0 -26.260794,6.231613 -33.449055,19.883084 -3.228757,6.131837 -3.614616,8.367524 -3.56076,20.631201 0.08786,20.007891 5.722708,30.254051 20.020758,36.404901 13.507794,5.81092 28.8124,3.9526 40.430748,-4.90915 4.751627,-3.62423 4.86449,-3.92984 4.47063,-12.10528 L 97.610848,95.456248 87.295247,94.768541 76.979646,94.080834 V 85.140647 76.200459 L 99.330119,75.822535 121.68057,75.44461 v 34.27226 c 0,38.325 0.68395,35.94198 -10.31558,35.94198 -8.07964,0 -10.3156,-1.07535 -10.3156,-4.9611 0,-4.33485 -2.629809,-4.22936 -12.241639,0.49101 -10.19894,5.00871 -28.257639,5.82431 -40.464231,1.82755 z m 102.22073,-9.04847 v -10.35655 l 40.91856,0.36432 40.91855,0.36433 v 9.6279 9.62789 l -40.91855,0.36432 -40.91856,0.36432 z m 145.33537,9.39865 c -0.50433,-0.5043 -0.91695,-13.40953 -0.91695,-28.67826 V 86.926903 L 277.39394,62.307892 C 267.72013,48.767437 257.78744,34.748934 255.32125,31.155667 l -4.48396,-6.533215 h 13.55294 13.55295 l 13.4798,18.644597 c 9.88805,13.676652 14.14614,18.532589 15.98053,18.22423 1.3754,-0.231202 8.27942,-8.466537 15.3423,-18.300745 l 12.84157,-17.880375 13.39527,-0.39366 c 7.36741,-0.216514 13.39528,-0.01919 13.39528,0.438514 0,0.457695 -9.90298,14.673041 -22.00662,31.589657 L 318.3647,87.702152 v 28.290638 28.29065 h -10.77407 c -5.92574,0 -11.1867,-0.41263 -11.69101,-0.91695 z m 57.5582,-4.24085 c 1.13351,-2.83679 11.81669,-30.17699 23.7404,-60.755995 11.92371,-30.578998 22.33118,-55.815416 23.12771,-56.080928 1.063,-0.35433 33.52054,80.338233 48.12519,119.643753 0.84275,2.26812 -0.0475,2.43135 -11.25288,2.06312 l -12.16804,-0.39986 -2.28072,-6.18936 -2.28071,-6.18936 -18.88476,-0.38367 c -11.36902,-0.23099 -19.55559,0.17305 -20.57034,1.01522 -0.92705,0.7694 -2.42952,3.882 -3.3388,6.91689 l -1.65322,5.51799 h -12.31237 -12.31239 z m 58.43499,-29.6482 c 0,-1.7443 -1.20673,-6.85052 -2.68161,-11.347151 -1.47489,-4.496634 -3.35555,-10.806173 -4.17926,-14.021203 -1.25237,-4.888233 -2.05205,-5.845507 -4.88315,-5.845507 -2.08033,0 -3.38552,0.789044 -3.38552,2.046673 0,1.125671 -1.90277,7.986746 -4.2284,15.246834 -2.3256,7.260094 -3.89237,14.075784 -3.48169,15.145994 0.55795,1.45401 3.5388,1.94583 11.79317,1.94583 10.6179,0 11.04646,-0.12304 11.04646,-3.17147 z m -230.0435,1.67823 c -20.25171,-4.77297 -35.4113,-23.270198 -35.4113,-43.207692 0,-16.082098 10.71555,-32.727488 25.85419,-40.161574 6.72279,-3.301339 9.51384,-3.851659 19.53446,-3.851659 9.96666,0 12.82575,0.557267 19.38436,3.778222 9.64558,4.736962 16.71647,11.538511 21.54196,20.721431 3.27588,6.233955 3.74929,8.697896 3.74929,19.51358 0,10.771054 -0.47971,13.291089 -3.69364,19.40378 -9.65205,18.357532 -31.25393,28.448122 -50.95932,23.803912 z m 23.49834,-24.473591 c 5.99126,-4.266162 8.99614,-10.512552 9.0391,-18.790089 0.0698,-13.459413 -8.95456,-22.638335 -22.25729,-22.638335 -14.03476,0 -22.31644,8.48829 -22.30035,22.856669 0.011,9.540552 2.74949,14.572553 10.57609,19.431407 6.8292,4.239657 18.33818,3.842994 24.94245,-0.859652 z"
     id="path14-4"
     inkscape:connector-curvature="0" />
</svg>
